<svg width="472" height="125" viewBox="0 0 472 125" fill="none" xmlns="http://www.w3.org/2000/svg">
<path d="M61.4375 94.75H41.75V58.375C41.75 49 38.3333 44.3125 31.5 44.3125C28 44.3125 25.1667 45.625 23 48.25C20.8333 50.875 19.75 54.2083 19.75 58.25V94.75H0V0H19.75V40.25H20C24.8333 32.875 31.3958 29.1875 39.6875 29.1875C54.1875 29.1875 61.4375 37.9375 61.4375 55.4375V94.75ZM137.185 68.375H95.435C96.1017 77.6667 101.956 82.3125 112.997 82.3125C120.039 82.3125 126.227 80.6458 131.56 77.3125V91.5625C125.643 94.7292 117.956 96.3125 108.497 96.3125C98.1642 96.3125 90.1433 93.4583 84.435 87.75C78.7267 82 75.8725 74 75.8725 63.75C75.8725 53.125 78.9558 44.7083 85.1225 38.5C91.2892 32.2917 98.8725 29.1875 107.872 29.1875C117.206 29.1875 124.414 31.9583 129.497 37.5C134.622 43.0417 137.185 50.5625 137.185 60.0625V68.375ZM118.872 56.25C118.872 47.0833 115.164 42.5 107.747 42.5C104.581 42.5 101.831 43.8125 99.4975 46.4375C97.2058 49.0625 95.81 52.3333 95.31 56.25H118.872ZM213.307 30.75L192.182 61.75L213.182 94.75H190.432L181.182 77.5C180.432 76.125 179.537 74.1875 178.495 71.6875H178.245C177.62 73.4375 176.766 75.3125 175.682 77.3125L166.37 94.75H143.682L165.307 62.875L144.995 30.75H167.87L176.995 48.6875C178.203 51.0625 179.057 53.0625 179.557 54.6875H179.807C180.474 52.7292 181.37 50.6875 182.495 48.5625L191.807 30.75H213.307ZM234.805 20.625C231.472 20.625 228.742 19.6458 226.617 17.6875C224.492 15.6875 223.43 13.25 223.43 10.375C223.43 7.41667 224.492 5 226.617 3.125C228.742 1.25 231.472 0.3125 234.805 0.3125C238.18 0.3125 240.909 1.25 242.992 3.125C245.117 5 246.18 7.41667 246.18 10.375C246.18 13.375 245.117 15.8333 242.992 17.75C240.909 19.6667 238.18 20.625 234.805 20.625ZM244.555 93.625C244.555 103.083 242.242 110.646 237.617 116.312C232.992 121.979 226.326 124.812 217.617 124.812C214.742 124.812 211.597 124.188 208.18 122.938V107.438C210.93 108.979 213.367 109.75 215.492 109.75C221.701 109.75 224.805 104.875 224.805 95.125V30.75H244.555V93.625ZM294.24 96.3125C283.573 96.3125 275.177 93.3333 269.052 87.375C262.969 81.375 259.927 73.25 259.927 63C259.927 52.4167 263.094 44.1458 269.427 38.1875C275.761 32.1875 284.323 29.1875 295.115 29.1875C305.74 29.1875 314.073 32.1875 320.115 38.1875C326.157 44.1458 329.177 52.0417 329.177 61.875C329.177 72.5 326.052 80.8958 319.802 87.0625C313.594 93.2292 305.073 96.3125 294.24 96.3125ZM294.74 44.3125C290.073 44.3125 286.448 45.9167 283.865 49.125C281.282 52.3333 279.99 56.875 279.99 62.75C279.99 75.0417 284.948 81.1875 294.865 81.1875C304.323 81.1875 309.052 74.875 309.052 62.25C309.052 50.2917 304.282 44.3125 294.74 44.3125ZM364.55 87.3125H364.3V94.75H344.55V0H364.3V40.375H364.55C369.425 32.9167 376.362 29.1875 385.362 29.1875C393.612 29.1875 399.967 32.0208 404.425 37.6875C408.883 43.3542 411.112 51.1042 411.112 60.9375C411.112 71.6042 408.508 80.1667 403.3 86.625C398.092 93.0833 391.133 96.3125 382.425 96.3125C374.55 96.3125 368.592 93.3125 364.55 87.3125ZM363.987 60.3125V66.875C363.987 71 365.175 74.4167 367.55 77.125C369.925 79.8333 372.967 81.1875 376.675 81.1875C381.175 81.1875 384.654 79.4583 387.112 76C389.612 72.5 390.862 67.5625 390.862 61.1875C390.862 55.8958 389.717 51.7708 387.425 48.8125C385.175 45.8125 381.946 44.3125 377.737 44.3125C373.779 44.3125 370.487 45.7917 367.862 48.75C365.279 51.7083 363.987 55.5625 363.987 60.3125ZM422.297 93.0625V77.0625C425.547 79.0208 428.777 80.4792 431.985 81.4375C435.235 82.3958 438.297 82.875 441.172 82.875C444.672 82.875 447.422 82.3958 449.422 81.4375C451.464 80.4792 452.485 79.0208 452.485 77.0625C452.485 75.8125 452.027 74.7708 451.11 73.9375C450.193 73.1042 449.006 72.375 447.547 71.75C446.131 71.125 444.568 70.5625 442.86 70.0625C441.152 69.5625 439.506 69 437.922 68.375C435.381 67.4167 433.131 66.3958 431.172 65.3125C429.256 64.1875 427.631 62.8958 426.297 61.4375C425.006 59.9792 424.006 58.2917 423.297 56.375C422.631 54.4583 422.297 52.1875 422.297 49.5625C422.297 45.9792 423.068 42.8958 424.61 40.3125C426.193 37.7292 428.277 35.625 430.86 34C433.485 32.3333 436.464 31.125 439.797 30.375C443.172 29.5833 446.672 29.1875 450.297 29.1875C453.131 29.1875 456.006 29.4167 458.922 29.875C461.839 30.2917 464.714 30.9167 467.547 31.75V47C465.047 45.5417 462.36 44.4583 459.485 43.75C456.652 43 453.86 42.625 451.11 42.625C449.818 42.625 448.589 42.75 447.422 43C446.297 43.2083 445.297 43.5417 444.422 44C443.547 44.4167 442.86 44.9792 442.36 45.6875C441.86 46.3542 441.61 47.125 441.61 48C441.61 49.1667 441.985 50.1667 442.735 51C443.485 51.8333 444.464 52.5625 445.672 53.1875C446.881 53.7708 448.214 54.3125 449.672 54.8125C451.172 55.2708 452.652 55.75 454.11 56.25C456.735 57.1667 459.11 58.1667 461.235 59.25C463.36 60.3333 465.172 61.6042 466.672 63.0625C468.214 64.5208 469.381 66.2292 470.172 68.1875C471.006 70.1458 471.422 72.4792 471.422 75.1875C471.422 78.9792 470.589 82.2292 468.922 84.9375C467.297 87.6042 465.11 89.7917 462.36 91.5C459.652 93.1667 456.506 94.375 452.922 95.125C449.381 95.9167 445.693 96.3125 441.86 96.3125C434.818 96.3125 428.297 95.2292 422.297 93.0625Z" fill="white"/>
</svg>
